{
  "accessors": [
    {
      "bufferView": 2,
      "componentType": 5126,
      "count": 396,
      "max": [
        31.72650146484375,
        19.92180633544922,
        31.14502716064453
      ],
      "min": [
        -5.865352630615234,
        -43.689231872558594,
        -14.832550048828125
      ],
      "type": "VEC3"
    },
    {
      "bufferView": 2,
      "byteOffset": 4752,
      "componentType": 5126,
      "count": 396,
      "max": [
        1.0,
        1.0,
        1.0
      ],
      "min": [
        -1.0,
        -1.0,
        -1.0
      ],
      "type": "VEC3"
    },
    {
      "bufferView": 1,
      "componentType": 5126,
      "count": 396,
      "max": [
        0.9849345088005066,
        0.9979999661445618
      ],
      "min": [
        0.0020000000949949026,
        0.0020000000949949026
      ],
      "type": "VEC2"
    },
    {
      "bufferView": 0,
      "componentType": 5125,
      "count": 666,
      "type": "SCALAR"
    },
    {
      "bufferView": 2,
      "byteOffset": 9504,
      "componentType": 5126,
      "count": 2329,
      "max": [
        30.20092010498047,
        18.592418670654297,
        31.843835830688477
      ],
      "min": [
        -3.5990476608276367,
        -41.25081253051758,
        -3.7142467498779297
      ],
      "type": "VEC3"
    },
    {
      "bufferView": 2,
      "byteOffset": 37452,
      "componentType": 5126,
      "count": 2329,
      "max": [
        0.9992198348045349,
        0.9998725056648254,
        0.9998003244400024
      ],
      "min": [
        -0.9983308911323547,
        -0.9987514615058899,
        -0.9999184608459473
      ],
      "type": "VEC3"
    },
    {
      "bufferView": 3,
      "componentType": 5126,
      "count": 2329,
      "max": [
        0.9997276663780212,
        0.999949038028717,
        0.9988966584205627,
        1.0
      ],
      "min": [
        -0.999954879283905,
        -0.9990254640579224,
        -0.9996182322502136,
        -1.0
      ],
      "type": "VEC4"
    },
    {
      "bufferView": 1,
      "byteOffset": 3168,
      "componentType": 5126,
      "count": 2329,
      "max": [
        0.9980400204658508,
        0.9538800120353699
      ],
      "min": [
        0.0019499999471008778,
        0.0019499999471008778
      ],
      "type": "VEC2"
    },
    {
      "bufferView": 0,
      "byteOffset": 2664,
      "componentType": 5125,
      "count": 12165,
      "type": "SCALAR"
    }
  ],
  "asset": {
    "extras": {
      "author": "andree (https://sketchfab.com/maestronoov)",
      "license": "CC-BY-4.0 (http://creativecommons.org/licenses/by/4.0/)",
      "source": "https://sketchfab.com/3d-models/mueble-dejardin-f9fbb4b432894037abb02609a9c85836",
      "title": "Mueble Dejardin"
    },
    "generator": "Sketchfab-12.65.0",
    "version": "2.0"
  },
  "bufferViews": [
    {
      "buffer": 0,
      "byteLength": 51324,
      "name": "floatBufferViews",
      "target": 34963
    },
    {
      "buffer": 0,
      "byteLength": 21800,
      "byteOffset": 51324,
      "byteStride": 8,
      "name": "floatBufferViews",
      "target": 34962
    },
    {
      "buffer": 0,
      "byteLength": 65400,
      "byteOffset": 73124,
      "byteStride": 12,
      "name": "floatBufferViews",
      "target": 34962
    },
    {
      "buffer": 0,
      "byteLength": 37264,
      "byteOffset": 138524,
      "byteStride": 16,
      "name": "floatBufferViews",
      "target": 34962
    }
  ],
  "buffers": [
    {
      "byteLength": 175788,
      "uri": "scene.bin"
    }
  ],
  "images": [
    {
      "uri": "textures/Material_21_baseColor.png"
    },
    {
      "uri": "textures/Material_21_metallicRoughness.png"
    },
    {
      "uri": "textures/cojines_demueblerallalowdefaultMat_baseColor.png"
    },
    {
      "uri": "textures/cojines_demueblerallalowdefaultMat_metallicRoughness.png"
    },
    {
      "uri": "textures/cojines_demueblerallalowdefaultMat_normal.png"
    }
  ],
  "materials": [
    {
      "alphaMode": "BLEND",
      "doubleSided": true,
      "name": "Material_21",
      "pbrMetallicRoughness": {
        "baseColorTexture": {
          "index": 0
        },
        "metallicFactor": 0.0,
        "metallicRoughnessTexture": {
          "index": 1
        }
      }
    },
    {
      "doubleSided": true,
      "name": "cojines_demueblerallalowdefaultMat",
      "normalTexture": {
        "index": 4
      },
      "pbrMetallicRoughness": {
        "baseColorTexture": {
          "index": 2
        },
        "metallicFactor": 0.0,
        "metallicRoughnessTexture": {
          "index": 3
        }
      }
    }
  ],
  "meshes": [
    {
      "name": "Box005_Material #21_0",
      "primitives": [
        {
          "attributes": {
            "NORMAL": 1,
            "POSITION": 0,
            "TEXCOORD_0": 2
          },
          "indices": 3,
          "material": 0,
          "mode": 4
        }
      ]
    },
    {
      "name": "Box005__cojines_demueblerallalowdefaultMat_0",
      "primitives": [
        {
          "attributes": {
            "NORMAL": 5,
            "POSITION": 4,
            "TANGENT": 6,
            "TEXCOORD_0": 7
          },
          "indices": 8,
          "material": 1,
          "mode": 4
        }
      ]
    }
  ],
  "nodes": [
    {
      "children": [
        1
      ],
      "matrix": [
        1.0,
        0.0,
        0.0,
        0.0,
        0.0,
        2.220446049250313e-16,
        -1.0,
        0.0,
        0.0,
        1.0,
        2.220446049250313e-16,
        0.0,
        0.0,
        0.0,
        0.0,
        1.0
      ],
      "name": "Sketchfab_model"
    },
    {
      "children": [
        2
      ],
      "matrix": [
        1.0,
        0.0,
        0.0,
        0.0,
        0.0,
        0.0,
        1.0,
        0.0,
        0.0,
        -1.0,
        0.0,
        0.0,
        0.0,
        0.0,
        0.0,
        1.0
      ],
      "name": "outdoor furniture.FBX"
    },
    {
      "children": [
        3
      ],
      "name": "RootNode"
    },
    {
      "children": [
        4
      ],
      "matrix": [
        1.0574204027261155e-09,
        -1.3428679606805835e-18,
        0.024190958589315394,
        0.0,
        0.024190958589315394,
        2.685735921361167e-18,
        -1.0574204040689835e-09,
        0.0,
        -4.0286038820417504e-18,
        0.024190958589315414,
        0.0,
        0.0,
        4.995323657989502,
        2.377255200579265e-39,
        -1.87348210811615,
        1.0
      ],
      "name": "Box005"
    },
    {
      "children": [
        5,
        6
      ],
      "matrix": [
        1.0,
        0.0,
        -0.0,
        0.0,
        0.0,
        1.0,
        0.0,
        0.0,
        0.0,
        0.0,
        1.0,
        0.0,
        -12.930575370788574,
        11.883709907531738,
        14.832550048828125,
        1.0
      ],
      "name": "Object_4"
    },
    {
      "mesh": 0,
      "name": "Box005_Material #21_0"
    },
    {
      "mesh": 1,
      "name": "Box005__cojines_demueblerallalowdefaultMat_0"
    }
  ],
  "samplers": [
    {
      "magFilter": 9729,
      "minFilter": 9987,
      "wrapS": 10497,
      "wrapT": 10497
    }
  ],
  "scene": 0,
  "scenes": [
    {
      "name": "Sketchfab_Scene",
      "nodes": [
        0
      ]
    }
  ],
  "textures": [
    {
      "sampler": 0,
      "source": 0
    },
    {
      "sampler": 0,
      "source": 1
    },
    {
      "sampler": 0,
      "source": 2
    },
    {
      "sampler": 0,
      "source": 3
    },
    {
      "sampler": 0,
      "source": 4
    }
  ]
}
